<?xml version="1.0" encoding="UTF-8" standalone="no"?>
<!-- Created with Inkscape (http://www.inkscape.org/) -->

<svg
   xmlns:dc="http://purl.org/dc/elements/1.1/"
   xmlns:cc="http://creativecommons.org/ns#"
   xmlns:rdf="http://www.w3.org/1999/02/22-rdf-syntax-ns#"
   xmlns:svg="http://www.w3.org/2000/svg"
   xmlns="http://www.w3.org/2000/svg"
   xmlns:sodipodi="http://sodipodi.sourceforge.net/DTD/sodipodi-0.dtd"
   xmlns:inkscape="http://www.inkscape.org/namespaces/inkscape"
   width="24.984997mm"
   height="15.032316mm"
   viewBox="0 0 24.984999 15.032317"
   version="1.1"
   id="svg2044"
   inkscape:version="0.92.5 (2060ec1f9f, 2020-04-08)"
   sodipodi:docname="bike.svg">
  <defs
     id="defs2038" />
  <sodipodi:namedview
     id="base"
     pagecolor="#ffffff"
     bordercolor="#666666"
     borderopacity="1.0"
     inkscape:pageopacity="0.0"
     inkscape:pageshadow="2"
     inkscape:zoom="0.35"
     inkscape:cx="-394.46705"
     inkscape:cy="-228.92396"
     inkscape:document-units="mm"
     inkscape:current-layer="layer1"
     showgrid="false"
     fit-margin-top="1"
     fit-margin-right="1"
     fit-margin-bottom="1"
     fit-margin-left="1"
     inkscape:window-width="1848"
     inkscape:window-height="1016"
     inkscape:window-x="72"
     inkscape:window-y="27"
     inkscape:window-maximized="1" />
  <metadata
     id="metadata2041">
    <rdf:RDF>
      <cc:Work
         rdf:about="">
        <dc:format>image/svg+xml</dc:format>
        <dc:type
           rdf:resource="http://purl.org/dc/dcmitype/StillImage" />
        <dc:title></dc:title>
      </cc:Work>
    </rdf:RDF>
  </metadata>
  <g
     inkscape:label="Capa 1"
     inkscape:groupmode="layer"
     id="layer1"
     transform="translate(-31.420003,-73.231551)">
    <g
       transform="matrix(0.35277777,0,0,-0.35277777,-152.40051,159.12611)"
       id="g1872">
      <path
         d="m 524.932,220.76 c -0.234,0 -0.464,0.075 -0.657,0.234 -0.44,0.366 -0.5,1.016 -0.138,1.455 1.666,2.018 3.865,3.492 6.354,4.267 1.412,0.437 3.049,0.544 3.752,0.589 1.198,0.08 2.073,0.067 3.779,0.038 1.371,-0.025 2.473,-0.067 3.239,-0.105 0.569,-0.027 1.008,-0.51 0.984,-1.08 -0.028,-0.573 -0.516,-1.029 -1.081,-0.981 -0.75,0.033 -1.835,0.075 -3.146,0.1 -1.646,0.031 -2.489,0.046 -3.465,-0.023 -0.807,-0.052 -2.271,-0.146 -3.449,-0.512 -2.106,-0.652 -3.965,-1.901 -5.377,-3.607 -0.202,-0.248 -0.496,-0.375 -0.795,-0.375"
         style="fill:#d44820;fill-opacity:1;fill-rule:nonzero;stroke:none;stroke-width:0.1"
         id="path482"
         inkscape:connector-curvature="0" />
      <path
         d="m 534.479,222.026 c -4.48,0 -8.128,-3.646 -8.128,-8.13 0,-4.48 3.648,-8.127 8.128,-8.127 4.483,0 8.13,3.647 8.13,8.127 0,4.484 -3.647,8.13 -8.13,8.13"
         style="fill:#bfc2d3;fill-opacity:1;fill-rule:nonzero;stroke:none;stroke-width:0.1"
         id="path484"
         inkscape:connector-curvature="0" />
      <path
         d="m 526.351,213.896 c 0,4.484 3.648,8.13 8.128,8.13 4.483,0 8.13,-3.646 8.13,-8.13 0,-4.48 -3.647,-8.127 -8.13,-8.127 -4.48,0 -8.128,3.647 -8.128,8.127 z m 8.128,10.195 c -5.618,0 -10.192,-4.572 -10.192,-10.195 0,-5.62 4.574,-10.192 10.192,-10.192 5.62,0 10.195,4.572 10.195,10.192 0,5.623 -4.575,10.195 -10.195,10.195"
         style="fill:#363536;fill-opacity:1;fill-rule:nonzero;stroke:none;stroke-width:0.1"
         id="path486"
         inkscape:connector-curvature="0" />
      <path
         d="m 578.86,222.026 c -4.48,0 -8.128,-3.646 -8.128,-8.13 0,-4.48 3.648,-8.127 8.128,-8.127 4.483,0 8.13,3.647 8.13,8.127 0,4.484 -3.647,8.13 -8.13,8.13"
         style="fill:#bfc2d3;fill-opacity:1;fill-rule:nonzero;stroke:none;stroke-width:0.1"
         id="path488"
         inkscape:connector-curvature="0" />
      <path
         d="m 570.732,213.896 c 0,4.484 3.648,8.13 8.128,8.13 4.483,0 8.13,-3.646 8.13,-8.13 0,-4.48 -3.647,-8.127 -8.13,-8.127 -4.48,0 -8.128,3.647 -8.128,8.127 z m 8.128,10.195 c -5.618,0 -10.192,-4.572 -10.192,-10.195 0,-5.62 4.574,-10.192 10.192,-10.192 5.62,0 10.195,4.572 10.195,10.192 0,5.623 -4.575,10.195 -10.195,10.195"
         style="fill:#363536;fill-opacity:1;fill-rule:nonzero;stroke:none;stroke-width:0.1"
         id="path490"
         inkscape:connector-curvature="0" />
      <path
         d="m 587.642,225.637 h 0.025 z m -7.361,-1.064 c -0.492,0 -0.919,0.35 -1.013,0.834 l -1.799,9.191 c -0.06,0.304 0.021,0.617 0.213,0.854 0.199,0.241 0.489,0.377 0.8,0.377 h 7.302 c 1.592,0 2.891,-1.298 2.891,-2.893 v -7.299 c 0,-0.57 -0.459,-1.032 -1.028,-1.033 l -7.361,-0.031 h -0.005"
         style="fill:#d44820;fill-opacity:1;fill-rule:nonzero;stroke:none;stroke-width:0.1"
         id="path492"
         inkscape:connector-curvature="0" />
      <path
         d="m 557.856,221.012 c -1.598,-2.593 -3.245,-5.259 -4.423,-5.922 l -8.084,14.074 18.014,-0.059 c -2.187,-2.714 -3.97,-5.601 -5.507,-8.093 z m -14.121,6.844 7.409,-12.925 h -14.878 z m 32.471,9.141 c -0.056,0.292 -0.237,0.547 -0.496,0.697 -0.25,0.146 -0.565,0.18 -0.851,0.082 -3.92,-1.342 -7.088,-3.79 -9.714,-6.612 l -20.71,0.069 -0.819,2.268 c -0.197,0.534 -0.786,0.804 -1.322,0.621 -0.537,-0.195 -0.815,-0.787 -0.622,-1.323 l 0.981,-2.68 -9.069,-15.706 c -0.18,-0.317 -0.18,-0.713 0,-1.032 0.185,-0.318 0.53,-0.516 0.895,-0.516 h 18.445 c 10e-4,0 0.002,0 0.003,0 0.004,0 0.006,0.001 0.009,0.001 2.328,0.008 4.154,2.967 6.68,7.06 3.278,5.315 7.709,12.497 14.799,15.472 l 4.22,-21.698 c 0.092,-0.493 0.528,-0.835 1.013,-0.835 0.064,0 0.129,0.005 0.197,0.018 0.562,0.109 0.923,0.651 0.816,1.213 l -4.455,22.901"
         style="fill:#f14258;fill-opacity:1;fill-rule:nonzero;stroke:none;stroke-width:0.1"
         id="path494"
         inkscape:connector-curvature="0" />
      <path
         d="m 534.479,207.22 c -2.156,0 -4.193,1.051 -5.444,2.812 -0.165,0.234 -0.114,0.555 0.121,0.721 0.221,0.165 0.549,0.114 0.718,-0.122 1.06,-1.489 2.783,-2.379 4.605,-2.379 0.287,0 0.518,-0.231 0.518,-0.516 0,-0.285 -0.231,-0.516 -0.518,-0.516"
         style="fill:#363536;fill-opacity:1;fill-rule:nonzero;stroke:none;stroke-width:0.1"
         id="path496"
         inkscape:connector-curvature="0" />
      <path
         d="m 585.537,212.466 c -0.027,0 -0.057,0.002 -0.085,0.008 -0.281,0.047 -0.472,0.311 -0.424,0.593 0.303,1.802 -0.286,3.651 -1.577,4.94 -0.201,0.2 -0.196,0.527 0.004,0.729 0.202,0.202 0.528,0.202 0.73,0 1.521,-1.526 2.219,-3.709 1.861,-5.839 -0.04,-0.251 -0.259,-0.431 -0.509,-0.431"
         style="fill:#363536;fill-opacity:1;fill-rule:nonzero;stroke:none;stroke-width:0.1"
         id="path498"
         inkscape:connector-curvature="0" />
      <path
         d="m 547.614,232.686 h -9.938 c -0.57,0 -1.034,0.461 -1.034,1.032 v 3.435 c 0,0.335 0.162,0.647 0.431,0.841 0.271,0.198 0.609,0.248 0.941,0.135 l 9.94,-3.435 c 0.475,-0.165 0.763,-0.65 0.678,-1.148 -0.081,-0.496 -0.513,-0.86 -1.018,-0.86"
         style="fill:#d44820;fill-opacity:1;fill-rule:nonzero;stroke:none;stroke-width:0.1"
         id="path500"
         inkscape:connector-curvature="0" />
      <path
         d="m 569.002,236.121 c -0.326,0 -0.646,0.154 -0.847,0.442 -0.327,0.469 -0.21,1.113 0.258,1.437 1.646,1.146 3.57,1.751 5.567,1.751 0.57,0 1.034,-0.462 1.034,-1.032 0,-0.573 -0.464,-1.034 -1.034,-1.034 -1.574,0 -3.089,-0.477 -4.388,-1.378 -0.179,-0.126 -0.384,-0.186 -0.59,-0.186"
         style="fill:#f14258;fill-opacity:1;fill-rule:nonzero;stroke:none;stroke-width:0.1"
         id="path502"
         inkscape:connector-curvature="0" />
      <path
         d="m 577.642,238.354 c 0,-1.265 -1.024,-2.29 -2.29,-2.29 -1.264,0 -2.29,1.025 -2.29,2.29 0,1.266 1.026,2.292 2.29,2.292 1.266,0 2.29,-1.026 2.29,-2.292"
         style="fill:#fbc054;fill-opacity:1;fill-rule:nonzero;stroke:none;stroke-width:0.1"
         id="path504"
         inkscape:connector-curvature="0" />
    </g>
  </g>
</svg>
